<svg width="32" height="32" viewBox="0 0 32 32" fill="none" xmlns="http://www.w3.org/2000/svg">
<g clip-path="url(#clip0_295_92)">
<path fill-rule="evenodd" clip-rule="evenodd" d="M6.66667 28H25.3333C26.8061 28 28 26.8061 28 25.3333V6.66667C28 5.19391 26.8061 4 25.3333 4H6.66667C5.19391 4 4 5.19391 4 6.66667V25.3333C4 26.8061 5.19391 28 6.66667 28Z" fill="white"/>
<path fill-rule="evenodd" clip-rule="evenodd" d="M24.6667 24.6667H21.1052V18.6007C21.1052 16.9376 20.4733 16.0082 19.1569 16.0082C17.7249 16.0082 16.9767 16.9754 16.9767 18.6007V24.6667H13.5444V13.1111H16.9767V14.6676C16.9767 14.6676 18.0087 12.7581 20.4608 12.7581C22.9119 12.7581 24.6667 14.2548 24.6667 17.3504V24.6667ZM9.44978 11.598C8.28068 11.598 7.33333 10.6432 7.33333 9.46567C7.33333 8.28812 8.28068 7.33333 9.44978 7.33333C10.6189 7.33333 11.5657 8.28812 11.5657 9.46567C11.5657 10.6432 10.6189 11.598 9.44978 11.598ZM7.67751 24.6667H11.2565V13.1111H7.67751V24.6667Z" fill="black"/>
</g>
<defs>
<clipPath id="clip0_295_92">
<rect width="24" height="24" fill="white" transform="translate(4 4)"/>
</clipPath>
</defs>
</svg>
